<svg xmlns="http://www.w3.org/2000/svg" xmlns:xlink="http://www.w3.org/1999/xlink" width="2080" height="1254.05"><rect width="2080" height="1254.05" rx="5" ry="5" class="a"/><svg y="0%" x="0%"><circle cx="20" cy="20" r="6" fill="#ff5f58"/><circle cx="40" cy="20" r="6" fill="#ffbd2e"/><circle cx="60" cy="20" r="6" fill="#18c132"/></svg><svg height="1194.05" viewBox="0 0 204 119.405" width="2040" x="15" xmlns="http://www.w3.org/2000/svg" xmlns:xlink="http://www.w3.org/1999/xlink" y="50"><style>@keyframes k{0%{transform:translateX(0)}2.2%{transform:translateX(-204px)}18.2%{transform:translateX(-408px)}20.9%{transform:translateX(-612px)}31.7%{transform:translateX(-816px)}35.5%{transform:translateX(-1020px)}38.5%{transform:translateX(-1224px)}41.5%{transform:translateX(-1428px)}43.7%{transform:translateX(-1632px)}45.8%{transform:translateX(-1836px)}60.7%{transform:translateX(-2040px)}64.9%{transform:translateX(-2244px)}68.4%{transform:translateX(-2448px)}77.9%{transform:translateX(-2652px)}78.1%{transform:translateX(-2856px)}to{transform:translateX(-3060px)}}.a{fill:#282d35}.f,.g,.h{white-space:pre}.f{fill:#a8cc8c;font-weight:700}.g,.h{fill:#b9c0cb}.h{fill:#71bef2;font-weight:700}</style><g font-family="Monaco,Consolas,Menlo,'Bitstream Vera Sans Mono','Powerline Symbols',monospace" font-size="1.67"><defs><symbol id="1"><text y="1.67" class="f">dima@dima-TUF-Gaming-FX505DY-FX505DY</text><text x="36.072" y="1.67" class="g">:</text><text x="37.074" y="1.67" class="h">~/hexlet/frontend-project-lvl2</text><text x="67.134" y="1.67" class="g">$</text></symbol><symbol id="2"><text y="1.67" class="f">dima@dima-TUF-Gaming-FX505DY-FX505DY</text><text x="36.072" y="1.67" class="g">:</text><text x="37.074" y="1.67" class="h">~/hexlet/frontend-project-lvl2</text><text x="67.134" y="1.67" class="g">$</text><text x="69.138" y="1.67" class="g">gendiff</text></symbol><symbol id="3"><text y="1.67" class="f">dima@dima-TUF-Gaming-FX505DY-FX505DY</text><text x="36.072" y="1.67" class="g">:</text><text x="37.074" y="1.67" class="h">~/hexlet/frontend-project-lvl2</text><text x="67.134" y="1.67" class="g">$</text><text x="69.138" y="1.67" class="g">gendiff</text><text x="77.154" y="1.67" class="g">-h</text></symbol><symbol id="4"><text y="1.67" class="g">Usage:</text><text x="7.014" y="1.67" class="g">gendiff</text><text x="15.03" y="1.67" class="g">[options]</text><text x="25.05" y="1.67" class="g">&lt;filePath1&gt;</text><text x="37.074" y="1.67" class="g">&lt;filePath2&gt;</text></symbol><symbol id="5"><text y="1.67" class="g">Compares</text><text x="9.018" y="1.67" class="g">two</text><text x="13.026" y="1.67" class="g">configuration</text><text x="27.054" y="1.67" class="g">files</text><text x="33.066" y="1.67" class="g">and</text><text x="37.074" y="1.67" class="g">shows</text><text x="43.086" y="1.67" class="g">a</text><text x="45.09" y="1.67" class="g">difference.</text></symbol><symbol id="6"><text y="1.67" class="g">Options:</text></symbol><symbol id="7"><text x="2.004" y="1.67" class="g">-V,</text><text x="6.012" y="1.67" class="g">--version</text><text x="23.046" y="1.67" class="g">output</text><text x="30.06" y="1.67" class="g">the</text><text x="34.068" y="1.67" class="g">version</text><text x="42.084" y="1.67" class="g">number</text></symbol><symbol id="8"><text x="2.004" y="1.67" class="g">-f,</text><text x="6.012" y="1.67" class="g">--format</text><text x="15.03" y="1.67" class="g">[type]</text><text x="23.046" y="1.67" class="g">output</text><text x="30.06" y="1.67" class="g">format</text><text x="37.074" y="1.67" class="g">(default:</text><text x="47.094" y="1.67" class="g">&quot;stylish&quot;)</text></symbol><symbol id="9"><text x="2.004" y="1.67" class="g">-h,</text><text x="6.012" y="1.67" class="g">--help</text><text x="23.046" y="1.67" class="g">display</text><text x="31.062" y="1.67" class="g">help</text><text x="36.072" y="1.67" class="g">for</text><text x="40.08" y="1.67" class="g">command</text></symbol><symbol id="a"><path fill="transparent" d="M0 0h204v55H0z"/></symbol><symbol id="b"><path fill="#6f7683" d="M0 0h1.102v2.171H0z"/></symbol></defs><path class="a" d="M0 0h204v119.405H0z"/><g style="animation-duration:7.859345s;animation-iteration-count:infinite;animation-name:k;animation-timing-function:steps(1,end)"><svg width="3264"><svg><use xlink:href="#a"/><use xlink:href="#b" x="-.004"/></svg><svg x="204"><use xlink:href="#a"/><use xlink:href="#b" x="68.996"/><use xlink:href="#1"/></svg><svg x="408"><use xlink:href="#a"/><use xlink:href="#b" x="69.996"/><text y="1.67" class="f">dima@dima-TUF-Gaming-FX505DY-FX505DY</text><text x="36.072" y="1.67" class="g">:</text><text x="37.074" y="1.67" class="h">~/hexlet/frontend-project-lvl2</text><text x="67.134" y="1.67" class="g">$</text><text x="69.138" y="1.67" class="g">g</text></svg><svg x="612"><use xlink:href="#a"/><use xlink:href="#b" x="70.996"/><text y="1.67" class="f">dima@dima-TUF-Gaming-FX505DY-FX505DY</text><text x="36.072" y="1.67" class="g">:</text><text x="37.074" y="1.67" class="h">~/hexlet/frontend-project-lvl2</text><text x="67.134" y="1.67" class="g">$</text><text x="69.138" y="1.67" class="g">ge</text></svg><svg x="816"><use xlink:href="#a"/><use xlink:href="#b" x="71.996"/><text y="1.67" class="f">dima@dima-TUF-Gaming-FX505DY-FX505DY</text><text x="36.072" y="1.67" class="g">:</text><text x="37.074" y="1.67" class="h">~/hexlet/frontend-project-lvl2</text><text x="67.134" y="1.67" class="g">$</text><text x="69.138" y="1.67" class="g">gen</text></svg><svg x="1020"><use xlink:href="#a"/><use xlink:href="#b" x="72.996"/><text y="1.67" class="f">dima@dima-TUF-Gaming-FX505DY-FX505DY</text><text x="36.072" y="1.67" class="g">:</text><text x="37.074" y="1.67" class="h">~/hexlet/frontend-project-lvl2</text><text x="67.134" y="1.67" class="g">$</text><text x="69.138" y="1.67" class="g">gend</text></svg><svg x="1224"><use xlink:href="#a"/><use xlink:href="#b" x="73.996"/><text y="1.67" class="f">dima@dima-TUF-Gaming-FX505DY-FX505DY</text><text x="36.072" y="1.67" class="g">:</text><text x="37.074" y="1.67" class="h">~/hexlet/frontend-project-lvl2</text><text x="67.134" y="1.67" class="g">$</text><text x="69.138" y="1.67" class="g">gendi</text></svg><svg x="1428"><use xlink:href="#a"/><use xlink:href="#b" x="74.996"/><text y="1.67" class="f">dima@dima-TUF-Gaming-FX505DY-FX505DY</text><text x="36.072" y="1.67" class="g">:</text><text x="37.074" y="1.67" class="h">~/hexlet/frontend-project-lvl2</text><text x="67.134" y="1.67" class="g">$</text><text x="69.138" y="1.67" class="g">gendif</text></svg><svg x="1632"><use xlink:href="#a"/><use xlink:href="#b" x="75.996"/><use xlink:href="#2"/></svg><svg x="1836"><use xlink:href="#a"/><use xlink:href="#b" x="76.996"/><use xlink:href="#2"/></svg><svg x="2040"><use xlink:href="#a"/><use xlink:href="#b" x="77.996"/><text y="1.67" class="f">dima@dima-TUF-Gaming-FX505DY-FX505DY</text><text x="36.072" y="1.67" class="g">:</text><text x="37.074" y="1.67" class="h">~/hexlet/frontend-project-lvl2</text><text x="67.134" y="1.67" class="g">$</text><text x="69.138" y="1.67" class="g">gendiff</text><text x="77.154" y="1.67" class="g">-</text></svg><svg x="2244"><use xlink:href="#a"/><use xlink:href="#b" x="78.996"/><use xlink:href="#3"/></svg><svg x="2448"><use xlink:href="#a"/><use xlink:href="#b" x="-.004" y="2.146"/><use xlink:href="#3"/></svg><svg x="2652"><use xlink:href="#a"/><use xlink:href="#b" x="-.004" y="19.514"/><use xlink:href="#3"/><use xlink:href="#4" y="2.171"/><use xlink:href="#5" y="6.513"/><use xlink:href="#6" y="10.855"/><use xlink:href="#7" y="13.026"/><use xlink:href="#8" y="15.197"/><use xlink:href="#9" y="17.368"/></svg><svg x="2856"><use xlink:href="#a"/><use xlink:href="#b" x="68.996" y="19.514"/><use xlink:href="#3"/><use xlink:href="#4" y="2.171"/><use xlink:href="#5" y="6.513"/><use xlink:href="#6" y="10.855"/><use xlink:href="#7" y="13.026"/><use xlink:href="#8" y="15.197"/><use xlink:href="#9" y="17.368"/><use xlink:href="#1" y="19.539"/></svg><svg x="3060"><use xlink:href="#a"/><use xlink:href="#b" x="-.004" y="21.685"/><use xlink:href="#3"/><use xlink:href="#4" y="2.171"/><use xlink:href="#5" y="6.513"/><use xlink:href="#6" y="10.855"/><use xlink:href="#7" y="13.026"/><use xlink:href="#8" y="15.197"/><use xlink:href="#9" y="17.368"/><text y="21.209" class="f">dima@dima-TUF-Gaming-FX505DY-FX505DY</text><text x="36.072" y="21.209" class="g">:</text><text x="37.074" y="21.209" class="h">~/hexlet/frontend-project-lvl2</text><text x="67.134" y="21.209" class="g">$</text><text x="69.138" y="21.209" class="g">exit</text></svg></svg></g></g></svg></svg>