<svg xmlns="http://www.w3.org/2000/svg" xmlns:xlink="http://www.w3.org/1999/xlink" width="2140" height="1314.05"><rect width="2140" height="1314.05" rx="5" ry="5" class="a"/><svg y="0%" x="0%"><circle cx="20" cy="20" r="6" fill="#ff5f58"/><circle cx="40" cy="20" r="6" fill="#ffbd2e"/><circle cx="60" cy="20" r="6" fill="#18c132"/></svg><svg height="1194.05" viewBox="0 0 204 119.405" width="2040" x="45" xmlns="http://www.w3.org/2000/svg" xmlns:xlink="http://www.w3.org/1999/xlink" y="80"><style>@keyframes k{0%{transform:translateX(0)}.6%{transform:translateX(-204px)}5.04%{transform:translateX(-408px)}6.7%{transform:translateX(-612px)}7.97%{transform:translateX(-816px)}8.98%{transform:translateX(-1020px)}9.97%{transform:translateX(-1224px)}10.96%{transform:translateX(-1428px)}11.65%{transform:translateX(-1632px)}12.24%{transform:translateX(-1836px)}17.77%{transform:translateX(-2040px)}18.51%{transform:translateX(-2244px)}19.24%{transform:translateX(-2448px)}20.07%{transform:translateX(-2652px)}24.96%{transform:translateX(-2856px)}29.08%{transform:translateX(-3060px)}32.03%{transform:translateX(-3264px)}32.82%{transform:translateX(-3468px)}33.59%{transform:translateX(-3672px)}34.51%{transform:translateX(-3876px)}35.01%{transform:translateX(-4080px)}36.19%{transform:translateX(-4284px)}36.77%{transform:translateX(-4488px)}37.42%{transform:translateX(-4692px)}38.07%{transform:translateX(-4896px)}39.56%{transform:translateX(-5100px)}41.6%{transform:translateX(-5304px)}43.13%{transform:translateX(-5508px)}43.76%{transform:translateX(-5712px)}44.49%{transform:translateX(-5916px)}45.36%{transform:translateX(-6120px)}46.16%{transform:translateX(-6324px)}47.86%{transform:translateX(-6528px)}49.5%{transform:translateX(-6732px)}52.19%{transform:translateX(-6936px)}52.3%{transform:translateX(-7140px)}to{transform:translateX(-7548px)}}.a{fill:#282d35}.f,.g,.h{white-space:pre}.f{fill:#a8cc8c;font-weight:700}.g,.h{fill:#b9c0cb}.h{fill:#71bef2;font-weight:700}</style><g font-family="Monaco,Consolas,Menlo,'Bitstream Vera Sans Mono','Powerline Symbols',monospace" font-size="1.67"><defs><symbol id="1"><text y="1.67" class="f">dima@dima-TUF-Gaming-FX505DY-FX505DY</text><text x="36.072" y="1.67" class="g">:</text><text x="37.074" y="1.67" class="h">~/hexlet/frontend-project-lvl2/__tests__/__fixtures__</text><text x="90.18" y="1.67" class="g">$</text></symbol><symbol id="2"><text y="1.67" class="f">dima@dima-TUF-Gaming-FX505DY-FX505DY</text><text x="36.072" y="1.67" class="g">:</text><text x="37.074" y="1.67" class="h">~/hexlet/frontend-project-lvl2/__tests__/__fixtures__</text><text x="90.18" y="1.67" class="g">$</text><text x="92.184" y="1.67" class="g">gendiff</text></symbol><symbol id="3"><text y="1.67" class="f">dima@dima-TUF-Gaming-FX505DY-FX505DY</text><text x="36.072" y="1.67" class="g">:</text><text x="37.074" y="1.67" class="h">~/hexlet/frontend-project-lvl2/__tests__/__fixtures__</text><text x="90.18" y="1.67" class="g">$</text><text x="92.184" y="1.67" class="g">gendiff</text><text x="100.2" y="1.67" class="g">file1.json</text></symbol><symbol id="4"><text y="1.67" class="f">dima@dima-TUF-Gaming-FX505DY-FX505DY</text><text x="36.072" y="1.67" class="g">:</text><text x="37.074" y="1.67" class="h">~/hexlet/frontend-project-lvl2/__tests__/__fixtures__</text><text x="90.18" y="1.67" class="g">$</text><text x="92.184" y="1.67" class="g">gendiff</text><text x="100.2" y="1.67" class="g">file1.json</text><text x="111.222" y="1.67" class="g">file2.json</text></symbol><symbol id="5"><text y="1.67" class="g">{</text></symbol><symbol id="6"><text y="1.67" class="g">common:</text><text x="8.016" y="1.67" class="g">{</text></symbol><symbol id="7"><text x="4.008" y="1.67" class="g">+</text><text x="6.012" y="1.67" class="g">follow:</text><text x="14.028" y="1.67" class="g">false</text></symbol><symbol id="8"><text x="6.012" y="1.67" class="g">setting1:</text><text x="16.032" y="1.67" class="g">Value</text><text x="22.044" y="1.67" class="g">1</text></symbol><symbol id="9"><text x="4.008" y="1.67" class="g">-</text><text x="6.012" y="1.67" class="g">setting2:</text><text x="16.032" y="1.67" class="g">200</text></symbol><symbol id="10"><text x="4.008" y="1.67" class="g">-</text><text x="6.012" y="1.67" class="g">setting3:</text><text x="16.032" y="1.67" class="g">true</text></symbol><symbol id="11"><text x="4.008" y="1.67" class="g">+</text><text x="6.012" y="1.67" class="g">setting3:</text><text x="16.032" y="1.67" class="g">null</text></symbol><symbol id="12"><text x="4.008" y="1.67" class="g">+</text><text x="6.012" y="1.67" class="g">setting4:</text><text x="16.032" y="1.67" class="g">blah</text><text x="21.042" y="1.67" class="g">blah</text></symbol><symbol id="13"><text x="4.008" y="1.67" class="g">+</text><text x="6.012" y="1.67" class="g">setting5:</text><text x="16.032" y="1.67" class="g">{</text></symbol><symbol id="14"><text x="8.016" y="1.67" class="g">key5:</text><text x="14.028" y="1.67" class="g">value5</text></symbol><symbol id="15"><text x="8.016" y="1.67" class="g">}</text></symbol><symbol id="16"><text x="4.008" y="1.67" class="g">setting6:</text><text x="14.028" y="1.67" class="g">{</text></symbol><symbol id="17"><text x="8.016" y="1.67" class="g">doge:</text><text x="14.028" y="1.67" class="g">{</text></symbol><symbol id="18"><text x="12.024" y="1.67" class="g">-</text><text x="14.028" y="1.67" class="g">wow:</text></symbol><symbol id="19"><text x="12.024" y="1.67" class="g">+</text><text x="14.028" y="1.67" class="g">wow:</text><text x="19.038" y="1.67" class="g">so</text><text x="22.044" y="1.67" class="g">much</text></symbol><symbol id="20"><text x="10.02" y="1.67" class="g">key:</text><text x="15.03" y="1.67" class="g">value</text></symbol><symbol id="21"><text x="8.016" y="1.67" class="g">+</text><text x="10.02" y="1.67" class="g">ops:</text><text x="15.03" y="1.67" class="g">vops</text></symbol><symbol id="22"><text x="4.008" y="1.67" class="g">}</text></symbol><symbol id="23"><text y="1.67" class="g">}</text></symbol><symbol id="24"><text y="1.67" class="g">group1:</text><text x="8.016" y="1.67" class="g">{</text></symbol><symbol id="25"><text x="4.008" y="1.67" class="g">-</text><text x="6.012" y="1.67" class="g">baz:</text><text x="11.022" y="1.67" class="g">bas</text></symbol><symbol id="26"><text x="4.008" y="1.67" class="g">+</text><text x="6.012" y="1.67" class="g">baz:</text><text x="11.022" y="1.67" class="g">bars</text></symbol><symbol id="27"><text x="6.012" y="1.67" class="g">foo:</text><text x="11.022" y="1.67" class="g">bar</text></symbol><symbol id="28"><text x="4.008" y="1.67" class="g">-</text><text x="6.012" y="1.67" class="g">nest:</text><text x="12.024" y="1.67" class="g">{</text></symbol><symbol id="29"><text x="8.016" y="1.67" class="g">key:</text><text x="13.026" y="1.67" class="g">value</text></symbol><symbol id="30"><text x="4.008" y="1.67" class="g">+</text><text x="6.012" y="1.67" class="g">nest:</text><text x="12.024" y="1.67" class="g">str</text></symbol><symbol id="31"><text y="1.67" class="g">-</text><text x="2.004" y="1.67" class="g">group2:</text><text x="10.02" y="1.67" class="g">{</text></symbol><symbol id="32"><text x="4.008" y="1.67" class="g">abc:</text><text x="9.018" y="1.67" class="g">12345</text></symbol><symbol id="33"><text x="4.008" y="1.67" class="g">deep:</text><text x="10.02" y="1.67" class="g">{</text></symbol><symbol id="34"><text x="8.016" y="1.67" class="g">id:</text><text x="12.024" y="1.67" class="g">45</text></symbol><symbol id="35"><text y="1.67" class="g">+</text><text x="2.004" y="1.67" class="g">group3:</text><text x="10.02" y="1.67" class="g">{</text></symbol><symbol id="36"><text x="4.008" y="1.67" class="g">fee:</text><text x="9.018" y="1.67" class="g">100500</text></symbol><symbol id="37"><text x="8.016" y="1.67" class="g">id:</text><text x="12.024" y="1.67" class="g">{</text></symbol><symbol id="38"><text x="12.024" y="1.67" class="g">number:</text><text x="20.04" y="1.67" class="g">45</text></symbol><symbol id="39"><text x="12.024" y="1.67" class="g">}</text></symbol><symbol id="40"><text y="1.67" class="f">dima@dima-TUF-Gaming-FX505DY-FX505DY</text><text x="36.072" y="1.67" class="g">:</text><text x="37.074" y="1.67" class="h">~/hexlet/frontend-project-lvl2/__tests__/__fixtures__</text><text x="90.18" y="1.67" class="g">$</text><text x="92.184" y="1.67" class="g">^C</text></symbol><symbol id="a"><path fill="transparent" d="M0 0h204v55H0z"/></symbol><symbol id="b"><path fill="#6f7683" d="M0 0h1.102v2.171H0z"/></symbol></defs><path class="a" d="M0 0h204v119.405H0z"/><g style="animation-duration:29.003355s;animation-iteration-count:infinite;animation-name:k;animation-timing-function:steps(1,end)"><svg width="7752"><svg><use xlink:href="#a"/><use xlink:href="#b" x="-.004"/></svg><svg x="204"><use xlink:href="#a"/><use xlink:href="#b" x="91.996"/><use xlink:href="#1"/></svg><svg x="408"><use xlink:href="#a"/><use xlink:href="#b" x="92.996"/><text y="1.67" class="f">dima@dima-TUF-Gaming-FX505DY-FX505DY</text><text x="36.072" y="1.67" class="g">:</text><text x="37.074" y="1.67" class="h">~/hexlet/frontend-project-lvl2/__tests__/__fixtures__</text><text x="90.18" y="1.67" class="g">$</text><text x="92.184" y="1.67" class="g">g</text></svg><svg x="612"><use xlink:href="#a"/><use xlink:href="#b" x="93.996"/><text y="1.67" class="f">dima@dima-TUF-Gaming-FX505DY-FX505DY</text><text x="36.072" y="1.67" class="g">:</text><text x="37.074" y="1.67" class="h">~/hexlet/frontend-project-lvl2/__tests__/__fixtures__</text><text x="90.18" y="1.67" class="g">$</text><text x="92.184" y="1.67" class="g">ge</text></svg><svg x="816"><use xlink:href="#a"/><use xlink:href="#b" x="94.996"/><text y="1.67" class="f">dima@dima-TUF-Gaming-FX505DY-FX505DY</text><text x="36.072" y="1.67" class="g">:</text><text x="37.074" y="1.67" class="h">~/hexlet/frontend-project-lvl2/__tests__/__fixtures__</text><text x="90.18" y="1.67" class="g">$</text><text x="92.184" y="1.67" class="g">gen</text></svg><svg x="1020"><use xlink:href="#a"/><use xlink:href="#b" x="95.996"/><text y="1.67" class="f">dima@dima-TUF-Gaming-FX505DY-FX505DY</text><text x="36.072" y="1.67" class="g">:</text><text x="37.074" y="1.67" class="h">~/hexlet/frontend-project-lvl2/__tests__/__fixtures__</text><text x="90.18" y="1.67" class="g">$</text><text x="92.184" y="1.67" class="g">gend</text></svg><svg x="1224"><use xlink:href="#a"/><use xlink:href="#b" x="96.996"/><text y="1.67" class="f">dima@dima-TUF-Gaming-FX505DY-FX505DY</text><text x="36.072" y="1.67" class="g">:</text><text x="37.074" y="1.67" class="h">~/hexlet/frontend-project-lvl2/__tests__/__fixtures__</text><text x="90.18" y="1.67" class="g">$</text><text x="92.184" y="1.67" class="g">gendi</text></svg><svg x="1428"><use xlink:href="#a"/><use xlink:href="#b" x="97.996"/><text y="1.67" class="f">dima@dima-TUF-Gaming-FX505DY-FX505DY</text><text x="36.072" y="1.67" class="g">:</text><text x="37.074" y="1.67" class="h">~/hexlet/frontend-project-lvl2/__tests__/__fixtures__</text><text x="90.18" y="1.67" class="g">$</text><text x="92.184" y="1.67" class="g">gendif</text></svg><svg x="1632"><use xlink:href="#a"/><use xlink:href="#b" x="98.996"/><use xlink:href="#2"/></svg><svg x="1836"><use xlink:href="#a"/><use xlink:href="#b" x="99.996"/><use xlink:href="#2"/></svg><svg x="2040"><use xlink:href="#a"/><use xlink:href="#b" x="100.996"/><text y="1.67" class="f">dima@dima-TUF-Gaming-FX505DY-FX505DY</text><text x="36.072" y="1.67" class="g">:</text><text x="37.074" y="1.67" class="h">~/hexlet/frontend-project-lvl2/__tests__/__fixtures__</text><text x="90.18" y="1.67" class="g">$</text><text x="92.184" y="1.67" class="g">gendiff</text><text x="100.2" y="1.67" class="g">f</text></svg><svg x="2244"><use xlink:href="#a"/><use xlink:href="#b" x="101.996"/><text y="1.67" class="f">dima@dima-TUF-Gaming-FX505DY-FX505DY</text><text x="36.072" y="1.67" class="g">:</text><text x="37.074" y="1.67" class="h">~/hexlet/frontend-project-lvl2/__tests__/__fixtures__</text><text x="90.18" y="1.67" class="g">$</text><text x="92.184" y="1.67" class="g">gendiff</text><text x="100.2" y="1.67" class="g">fi</text></svg><svg x="2448"><use xlink:href="#a"/><use xlink:href="#b" x="102.996"/><text y="1.67" class="f">dima@dima-TUF-Gaming-FX505DY-FX505DY</text><text x="36.072" y="1.67" class="g">:</text><text x="37.074" y="1.67" class="h">~/hexlet/frontend-project-lvl2/__tests__/__fixtures__</text><text x="90.18" y="1.67" class="g">$</text><text x="92.184" y="1.67" class="g">gendiff</text><text x="100.2" y="1.67" class="g">fil</text></svg><svg x="2652"><use xlink:href="#a"/><use xlink:href="#b" x="103.996"/><text y="1.67" class="f">dima@dima-TUF-Gaming-FX505DY-FX505DY</text><text x="36.072" y="1.67" class="g">:</text><text x="37.074" y="1.67" class="h">~/hexlet/frontend-project-lvl2/__tests__/__fixtures__</text><text x="90.18" y="1.67" class="g">$</text><text x="92.184" y="1.67" class="g">gendiff</text><text x="100.2" y="1.67" class="g">file</text></svg><svg x="2856"><use xlink:href="#a"/><use xlink:href="#b" x="104.996"/><text y="1.67" class="f">dima@dima-TUF-Gaming-FX505DY-FX505DY</text><text x="36.072" y="1.67" class="g">:</text><text x="37.074" y="1.67" class="h">~/hexlet/frontend-project-lvl2/__tests__/__fixtures__</text><text x="90.18" y="1.67" class="g">$</text><text x="92.184" y="1.67" class="g">gendiff</text><text x="100.2" y="1.67" class="g">file1</text></svg><svg x="3060"><use xlink:href="#a"/><use xlink:href="#b" x="105.996"/><text y="1.67" class="f">dima@dima-TUF-Gaming-FX505DY-FX505DY</text><text x="36.072" y="1.67" class="g">:</text><text x="37.074" y="1.67" class="h">~/hexlet/frontend-project-lvl2/__tests__/__fixtures__</text><text x="90.18" y="1.67" class="g">$</text><text x="92.184" y="1.67" class="g">gendiff</text><text x="100.2" y="1.67" class="g">file1.</text></svg><svg x="3264"><use xlink:href="#a"/><use xlink:href="#b" x="106.996"/><text y="1.67" class="f">dima@dima-TUF-Gaming-FX505DY-FX505DY</text><text x="36.072" y="1.67" class="g">:</text><text x="37.074" y="1.67" class="h">~/hexlet/frontend-project-lvl2/__tests__/__fixtures__</text><text x="90.18" y="1.67" class="g">$</text><text x="92.184" y="1.67" class="g">gendiff</text><text x="100.2" y="1.67" class="g">file1.j</text></svg><svg x="3468"><use xlink:href="#a"/><use xlink:href="#b" x="107.996"/><text y="1.67" class="f">dima@dima-TUF-Gaming-FX505DY-FX505DY</text><text x="36.072" y="1.67" class="g">:</text><text x="37.074" y="1.67" class="h">~/hexlet/frontend-project-lvl2/__tests__/__fixtures__</text><text x="90.18" y="1.67" class="g">$</text><text x="92.184" y="1.67" class="g">gendiff</text><text x="100.2" y="1.67" class="g">file1.js</text></svg><svg x="3672"><use xlink:href="#a"/><use xlink:href="#b" x="108.996"/><text y="1.67" class="f">dima@dima-TUF-Gaming-FX505DY-FX505DY</text><text x="36.072" y="1.67" class="g">:</text><text x="37.074" y="1.67" class="h">~/hexlet/frontend-project-lvl2/__tests__/__fixtures__</text><text x="90.18" y="1.67" class="g">$</text><text x="92.184" y="1.67" class="g">gendiff</text><text x="100.2" y="1.67" class="g">file1.jso</text></svg><svg x="3876"><use xlink:href="#a"/><use xlink:href="#b" x="109.996"/><use xlink:href="#3"/></svg><svg x="4080"><use xlink:href="#a"/><use xlink:href="#b" x="110.996"/><use xlink:href="#3"/></svg><svg x="4284"><use xlink:href="#a"/><use xlink:href="#b" x="111.996"/><text y="1.67" class="f">dima@dima-TUF-Gaming-FX505DY-FX505DY</text><text x="36.072" y="1.67" class="g">:</text><text x="37.074" y="1.67" class="h">~/hexlet/frontend-project-lvl2/__tests__/__fixtures__</text><text x="90.18" y="1.67" class="g">$</text><text x="92.184" y="1.67" class="g">gendiff</text><text x="100.2" y="1.67" class="g">file1.json</text><text x="111.222" y="1.67" class="g">f</text></svg><svg x="4488"><use xlink:href="#a"/><use xlink:href="#b" x="112.996"/><text y="1.67" class="f">dima@dima-TUF-Gaming-FX505DY-FX505DY</text><text x="36.072" y="1.67" class="g">:</text><text x="37.074" y="1.67" class="h">~/hexlet/frontend-project-lvl2/__tests__/__fixtures__</text><text x="90.18" y="1.67" class="g">$</text><text x="92.184" y="1.67" class="g">gendiff</text><text x="100.2" y="1.67" class="g">file1.json</text><text x="111.222" y="1.67" class="g">fi</text></svg><svg x="4692"><use xlink:href="#a"/><use xlink:href="#b" x="113.996"/><text y="1.67" class="f">dima@dima-TUF-Gaming-FX505DY-FX505DY</text><text x="36.072" y="1.67" class="g">:</text><text x="37.074" y="1.67" class="h">~/hexlet/frontend-project-lvl2/__tests__/__fixtures__</text><text x="90.18" y="1.67" class="g">$</text><text x="92.184" y="1.67" class="g">gendiff</text><text x="100.2" y="1.67" class="g">file1.json</text><text x="111.222" y="1.67" class="g">fil</text></svg><svg x="4896"><use xlink:href="#a"/><use xlink:href="#b" x="114.996"/><text y="1.67" class="f">dima@dima-TUF-Gaming-FX505DY-FX505DY</text><text x="36.072" y="1.67" class="g">:</text><text x="37.074" y="1.67" class="h">~/hexlet/frontend-project-lvl2/__tests__/__fixtures__</text><text x="90.18" y="1.67" class="g">$</text><text x="92.184" y="1.67" class="g">gendiff</text><text x="100.2" y="1.67" class="g">file1.json</text><text x="111.222" y="1.67" class="g">file</text></svg><svg x="5100"><use xlink:href="#a"/><use xlink:href="#b" x="115.996"/><text y="1.67" class="f">dima@dima-TUF-Gaming-FX505DY-FX505DY</text><text x="36.072" y="1.67" class="g">:</text><text x="37.074" y="1.67" class="h">~/hexlet/frontend-project-lvl2/__tests__/__fixtures__</text><text x="90.18" y="1.67" class="g">$</text><text x="92.184" y="1.67" class="g">gendiff</text><text x="100.2" y="1.67" class="g">file1.json</text><text x="111.222" y="1.67" class="g">file2</text></svg><svg x="5304"><use xlink:href="#a"/><use xlink:href="#b" x="116.996"/><text y="1.67" class="f">dima@dima-TUF-Gaming-FX505DY-FX505DY</text><text x="36.072" y="1.67" class="g">:</text><text x="37.074" y="1.67" class="h">~/hexlet/frontend-project-lvl2/__tests__/__fixtures__</text><text x="90.18" y="1.67" class="g">$</text><text x="92.184" y="1.67" class="g">gendiff</text><text x="100.2" y="1.67" class="g">file1.json</text><text x="111.222" y="1.67" class="g">file2.</text></svg><svg x="5508"><use xlink:href="#a"/><use xlink:href="#b" x="117.996"/><text y="1.67" class="f">dima@dima-TUF-Gaming-FX505DY-FX505DY</text><text x="36.072" y="1.67" class="g">:</text><text x="37.074" y="1.67" class="h">~/hexlet/frontend-project-lvl2/__tests__/__fixtures__</text><text x="90.18" y="1.67" class="g">$</text><text x="92.184" y="1.67" class="g">gendiff</text><text x="100.2" y="1.67" class="g">file1.json</text><text x="111.222" y="1.67" class="g">file2.j</text></svg><svg x="5712"><use xlink:href="#a"/><use xlink:href="#b" x="118.996"/><text y="1.67" class="f">dima@dima-TUF-Gaming-FX505DY-FX505DY</text><text x="36.072" y="1.67" class="g">:</text><text x="37.074" y="1.67" class="h">~/hexlet/frontend-project-lvl2/__tests__/__fixtures__</text><text x="90.18" y="1.67" class="g">$</text><text x="92.184" y="1.67" class="g">gendiff</text><text x="100.2" y="1.67" class="g">file1.json</text><text x="111.222" y="1.67" class="g">file2.js</text></svg><svg x="5916"><use xlink:href="#a"/><use xlink:href="#b" x="119.996"/><text y="1.67" class="f">dima@dima-TUF-Gaming-FX505DY-FX505DY</text><text x="36.072" y="1.67" class="g">:</text><text x="37.074" y="1.67" class="h">~/hexlet/frontend-project-lvl2/__tests__/__fixtures__</text><text x="90.18" y="1.67" class="g">$</text><text x="92.184" y="1.67" class="g">gendiff</text><text x="100.2" y="1.67" class="g">file1.json</text><text x="111.222" y="1.67" class="g">file2.jso</text></svg><svg x="6120"><use xlink:href="#a"/><use xlink:href="#b" x="120.996"/><use xlink:href="#4"/></svg><svg x="6324"><use xlink:href="#a"/><use xlink:href="#b" x="121.996"/><use xlink:href="#4"/></svg><svg x="6528"><use xlink:href="#a"/><use xlink:href="#b" x="120.996"/><use xlink:href="#4"/></svg><svg x="6732"><use xlink:href="#a"/><use xlink:href="#b" x="-.004" y="2.146"/><use xlink:href="#4"/></svg><svg x="6936"><use xlink:href="#a"/><use xlink:href="#b" x="-.004" y="97.67"/><use xlink:href="#4"/><use xlink:href="#5" y="2.171"/><use xlink:href="#6" y="4.342"/><use xlink:href="#7" y="6.513"/><use xlink:href="#8" y="8.684"/><use xlink:href="#9" y="10.855"/><use xlink:href="#10" y="13.026"/><use xlink:href="#11" y="15.197"/><use xlink:href="#12" y="17.368"/><use xlink:href="#13" y="19.539"/><use xlink:href="#14" y="21.71"/><use xlink:href="#15" y="23.881"/><use xlink:href="#16" y="26.052"/><use xlink:href="#17" y="28.223"/><use xlink:href="#18" y="30.394"/><use xlink:href="#19" y="32.565"/><use xlink:href="#15" y="34.736"/><use xlink:href="#20" y="36.907"/><use xlink:href="#21" y="39.078"/><use xlink:href="#22" y="41.249"/><use xlink:href="#23" y="43.42"/><use xlink:href="#24" y="45.591"/><use xlink:href="#25" y="47.762"/><use xlink:href="#26" y="49.933"/><use xlink:href="#27" y="52.104"/><use xlink:href="#28" y="54.275"/><use xlink:href="#29" y="56.446"/><use xlink:href="#15" y="58.617"/><use xlink:href="#30" y="60.788"/><use xlink:href="#23" y="62.959"/><use xlink:href="#31" y="65.13"/><use xlink:href="#32" y="67.301"/><use xlink:href="#33" y="69.472"/><use xlink:href="#34" y="71.643"/><use xlink:href="#15" y="73.814"/><use xlink:href="#22" y="75.985"/><use xlink:href="#35" y="78.156"/><use xlink:href="#36" y="80.327"/><use xlink:href="#33" y="82.498"/><use xlink:href="#37" y="84.669"/><use xlink:href="#38" y="86.84"/><use xlink:href="#39" y="89.011"/><use xlink:href="#15" y="91.182"/><use xlink:href="#22" y="93.353"/><use xlink:href="#23" y="95.524"/></svg><svg x="7140"><use xlink:href="#a"/><use xlink:href="#b" x="91.996" y="97.67"/><use xlink:href="#4"/><use xlink:href="#5" y="2.171"/><use xlink:href="#6" y="4.342"/><use xlink:href="#7" y="6.513"/><use xlink:href="#8" y="8.684"/><use xlink:href="#9" y="10.855"/><use xlink:href="#10" y="13.026"/><use xlink:href="#11" y="15.197"/><use xlink:href="#12" y="17.368"/><use xlink:href="#13" y="19.539"/><use xlink:href="#14" y="21.71"/><use xlink:href="#15" y="23.881"/><use xlink:href="#16" y="26.052"/><use xlink:href="#17" y="28.223"/><use xlink:href="#18" y="30.394"/><use xlink:href="#19" y="32.565"/><use xlink:href="#15" y="34.736"/><use xlink:href="#20" y="36.907"/><use xlink:href="#21" y="39.078"/><use xlink:href="#22" y="41.249"/><use xlink:href="#23" y="43.42"/><use xlink:href="#24" y="45.591"/><use xlink:href="#25" y="47.762"/><use xlink:href="#26" y="49.933"/><use xlink:href="#27" y="52.104"/><use xlink:href="#28" y="54.275"/><use xlink:href="#29" y="56.446"/><use xlink:href="#15" y="58.617"/><use xlink:href="#30" y="60.788"/><use xlink:href="#23" y="62.959"/><use xlink:href="#31" y="65.13"/><use xlink:href="#32" y="67.301"/><use xlink:href="#33" y="69.472"/><use xlink:href="#34" y="71.643"/><use xlink:href="#15" y="73.814"/><use xlink:href="#22" y="75.985"/><use xlink:href="#35" y="78.156"/><use xlink:href="#36" y="80.327"/><use xlink:href="#33" y="82.498"/><use xlink:href="#37" y="84.669"/><use xlink:href="#38" y="86.84"/><use xlink:href="#39" y="89.011"/><use xlink:href="#15" y="91.182"/><use xlink:href="#22" y="93.353"/><use xlink:href="#23" y="95.524"/><use xlink:href="#1" y="97.695"/></svg><svg x="7344"><use xlink:href="#a"/><use xlink:href="#b" x="93.996" y="97.67"/><use xlink:href="#4"/><use xlink:href="#5" y="2.171"/><use xlink:href="#6" y="4.342"/><use xlink:href="#7" y="6.513"/><use xlink:href="#8" y="8.684"/><use xlink:href="#9" y="10.855"/><use xlink:href="#10" y="13.026"/><use xlink:href="#11" y="15.197"/><use xlink:href="#12" y="17.368"/><use xlink:href="#13" y="19.539"/><use xlink:href="#14" y="21.71"/><use xlink:href="#15" y="23.881"/><use xlink:href="#16" y="26.052"/><use xlink:href="#17" y="28.223"/><use xlink:href="#18" y="30.394"/><use xlink:href="#19" y="32.565"/><use xlink:href="#15" y="34.736"/><use xlink:href="#20" y="36.907"/><use xlink:href="#21" y="39.078"/><use xlink:href="#22" y="41.249"/><use xlink:href="#23" y="43.42"/><use xlink:href="#24" y="45.591"/><use xlink:href="#25" y="47.762"/><use xlink:href="#26" y="49.933"/><use xlink:href="#27" y="52.104"/><use xlink:href="#28" y="54.275"/><use xlink:href="#29" y="56.446"/><use xlink:href="#15" y="58.617"/><use xlink:href="#30" y="60.788"/><use xlink:href="#23" y="62.959"/><use xlink:href="#31" y="65.13"/><use xlink:href="#32" y="67.301"/><use xlink:href="#33" y="69.472"/><use xlink:href="#34" y="71.643"/><use xlink:href="#15" y="73.814"/><use xlink:href="#22" y="75.985"/><use xlink:href="#35" y="78.156"/><use xlink:href="#36" y="80.327"/><use xlink:href="#33" y="82.498"/><use xlink:href="#37" y="84.669"/><use xlink:href="#38" y="86.84"/><use xlink:href="#39" y="89.011"/><use xlink:href="#15" y="91.182"/><use xlink:href="#22" y="93.353"/><use xlink:href="#23" y="95.524"/><use xlink:href="#40" y="97.695"/></svg><svg x="7548"><use xlink:href="#a"/><use xlink:href="#b" x="-.004" y="99.841"/><use xlink:href="#4"/><use xlink:href="#5" y="2.171"/><use xlink:href="#6" y="4.342"/><use xlink:href="#7" y="6.513"/><use xlink:href="#8" y="8.684"/><use xlink:href="#9" y="10.855"/><use xlink:href="#10" y="13.026"/><use xlink:href="#11" y="15.197"/><use xlink:href="#12" y="17.368"/><use xlink:href="#13" y="19.539"/><use xlink:href="#14" y="21.71"/><use xlink:href="#15" y="23.881"/><use xlink:href="#16" y="26.052"/><use xlink:href="#17" y="28.223"/><use xlink:href="#18" y="30.394"/><use xlink:href="#19" y="32.565"/><use xlink:href="#15" y="34.736"/><use xlink:href="#20" y="36.907"/><use xlink:href="#21" y="39.078"/><use xlink:href="#22" y="41.249"/><use xlink:href="#23" y="43.42"/><use xlink:href="#24" y="45.591"/><use xlink:href="#25" y="47.762"/><use xlink:href="#26" y="49.933"/><use xlink:href="#27" y="52.104"/><use xlink:href="#28" y="54.275"/><use xlink:href="#29" y="56.446"/><use xlink:href="#15" y="58.617"/><use xlink:href="#30" y="60.788"/><use xlink:href="#23" y="62.959"/><use xlink:href="#31" y="65.13"/><use xlink:href="#32" y="67.301"/><use xlink:href="#33" y="69.472"/><use xlink:href="#34" y="71.643"/><use xlink:href="#15" y="73.814"/><use xlink:href="#22" y="75.985"/><use xlink:href="#35" y="78.156"/><use xlink:href="#36" y="80.327"/><use xlink:href="#33" y="82.498"/><use xlink:href="#37" y="84.669"/><use xlink:href="#38" y="86.84"/><use xlink:href="#39" y="89.011"/><use xlink:href="#15" y="91.182"/><use xlink:href="#22" y="93.353"/><use xlink:href="#23" y="95.524"/><use xlink:href="#40" y="97.695"/></svg></svg></g></g></svg></svg>